<svg xmlns="http://www.w3.org/2000/svg" viewBox="0 0 60.11 40"><title>190318_Rechnung_Res</title><g id="b93ec7aa-49b7-423f-aee8-48391e40415d" data-name="rechnung"><text transform="translate(8.36 36.21)" font-size="9.04" fill="#4d4d4d" font-family="OpenSans-Semibold, Open Sans" font-weight="600">Rechnung</text><path d="M37.23,2.17H27.87a2.39,2.39,0,0,0-1.71.71L21.55,7.49a1.7,1.7,0,0,0-.5,1.21V23.34a2.1,2.1,0,0,0,2.1,2.11H37.23a2.1,2.1,0,0,0,2.11-2.11V4.27A2.1,2.1,0,0,0,37.23,2.17ZM26.87,3.34V6.71A1.28,1.28,0,0,1,25.59,8H22.22ZM27.7,3h9.53a1.27,1.27,0,0,1,1.28,1.27V23.34a1.28,1.28,0,0,1-1.28,1.28H23.15a1.27,1.27,0,0,1-1.27-1.28V8.82h3.71A2.1,2.1,0,0,0,27.7,6.71M36,5.91a.41.41,0,0,1-.41.41h-5a.41.41,0,0,1-.42-.41.42.42,0,0,1,.42-.42h5A.41.41,0,0,1,36,5.91Zm0,5.82a.41.41,0,0,1-.41.41H24.79a.41.41,0,0,1-.42-.41.42.42,0,0,1,.42-.42H35.6A.41.41,0,0,1,36,11.73Zm0,2.49a.41.41,0,0,1-.41.42H24.79a.42.42,0,0,1-.42-.42.41.41,0,0,1,.42-.41H35.6A.41.41,0,0,1,36,14.22Zm-5.82,2.5a.41.41,0,0,1-.41.41h-5a.41.41,0,0,1-.42-.41.42.42,0,0,1,.42-.42h5A.41.41,0,0,1,30.19,16.72Zm0,2.49a.41.41,0,0,1-.41.42h-5a.42.42,0,0,1-.42-.42.41.41,0,0,1,.42-.41h5A.41.41,0,0,1,30.19,19.21Zm0,2.5a.41.41,0,0,1-.41.41h-5a.41.41,0,0,1-.42-.41.42.42,0,0,1,.42-.42h5A.41.41,0,0,1,30.19,21.71Z" fill="#4d4d4d"/><text transform="translate(31.45 22.91)" font-size="9.04" fill="#3fa9f5" font-family="OpenSans-Semibold, Open Sans" font-weight="600">€</text></g><g id="af8a1ac1-ef30-4c1b-832c-29e7ebf8e36b" data-name="rahmen"><path d="M54.33.25a5.42,5.42,0,0,1,5.42,5.42V34.33a5.42,5.42,0,0,1-5.42,5.42H5.67A5.42,5.42,0,0,1,.25,34.33V5.67A5.42,5.42,0,0,1,5.67.25H54.33m0-.25H5.67A5.68,5.68,0,0,0,0,5.67V34.33A5.68,5.68,0,0,0,5.67,40H54.33A5.68,5.68,0,0,0,60,34.33V5.67A5.68,5.68,0,0,0,54.33,0Z" fill="#575756"/></g></svg>